<?xml version="1.0" standalone="no"?>
<!DOCTYPE svg PUBLIC "-//W3C//DTD SVG 20010904//EN"
 "http://www.w3.org/TR/2001/REC-SVG-20010904/DTD/svg10.dtd">
<svg version="1.0" xmlns="http://www.w3.org/2000/svg"
 width="700.000000pt" height="700.000000pt" viewBox="0 0 700.000000 700.000000"
 preserveAspectRatio="xMidYMid meet">
<metadata>
Created by potrace 1.14, written by Peter Selinger 2001-2017
</metadata>
<g transform="translate(0.000000,700.000000) scale(0.100000,-0.100000)"
fill="#000000" stroke="none">
<path d="M3710 6284 c-368 -80 -743 -372 -1080 -844 -198 -277 -385 -650 -456
-910 -18 -69 -46 -192 -50 -225 -3 -22 -7 -46 -9 -52 -3 -7 -7 -57 -11 -110
-8 -124 7 -204 55 -308 74 -157 202 -262 396 -323 11 -4 554 -8 1206 -9 1145
-3 1188 -3 1231 16 160 68 191 283 58 395 -56 46 -112 54 -368 53 -129 -1
-237 0 -241 3 -4 3 -8 412 -8 910 0 812 -2 912 -17 970 -52 201 -187 350 -378
417 -89 31 -229 38 -328 17z m-14 -1617 c2 -35 15 -159 19 -192 2 -16 9 -77
15 -135 6 -58 13 -121 15 -140 2 -19 7 -62 10 -95 3 -33 8 -77 11 -97 5 -32 3
-38 -13 -39 -10 -1 -123 -2 -250 -3 -165 -1 -233 2 -233 10 0 43 143 328 242
482 80 125 169 244 177 237 3 -3 6 -16 7 -28z"/>
<path d="M2109 3256 c-40 -7 -101 -29 -150 -53 -206 -102 -333 -313 -323 -535
2 -40 5 -80 7 -88 2 -8 7 -31 11 -50 18 -78 80 -184 151 -256 268 -270 715
-215 911 113 85 142 105 319 53 482 -23 74 -84 167 -150 232 -136 133 -316
187 -510 155z"/>
<path d="M3874 3029 c-5 -9 0 -68 21 -254 3 -22 7 -69 11 -105 3 -36 7 -76 10
-90 2 -14 6 -56 10 -95 3 -38 7 -79 9 -91 2 -11 6 -52 10 -90 3 -38 8 -82 10
-99 2 -16 7 -59 11 -95 11 -115 56 -184 143 -223 115 -51 251 4 304 123 19 43
20 66 21 533 1 268 -1 487 -4 488 -25 5 -553 2 -556 -2z"/>
<path d="M602 1380 c-148 -68 -183 -259 -68 -375 30 -30 73 -54 161 -92 106
-45 283 -109 325 -118 8 -2 49 -12 90 -23 99 -27 198 -46 305 -59 80 -10 362
-10 449 0 95 10 290 51 394 83 97 29 262 92 276 105 17 15 41 10 116 -22 125
-53 272 -101 385 -125 182 -40 287 -51 465 -51 282 0 534 49 809 159 l123 50
130 -52 c113 -44 258 -90 338 -106 14 -3 44 -9 67 -14 22 -5 65 -13 95 -16 29
-3 76 -10 103 -14 54 -9 375 -6 440 4 201 31 479 103 600 156 11 5 62 27 112
49 51 22 109 52 129 68 76 57 105 182 65 276 -24 55 -52 83 -115 113 -70 33
-139 28 -241 -17 -111 -50 -330 -124 -425 -144 -179 -39 -245 -47 -370 -45
-133 1 -166 5 -355 44 -96 20 -378 117 -459 158 -23 12 -66 22 -100 23 -50 3
-73 -2 -131 -26 -38 -17 -95 -40 -125 -51 -30 -10 -64 -23 -75 -28 -54 -23
-224 -70 -327 -91 -131 -26 -169 -30 -293 -29 -106 1 -136 3 -200 14 -16 3
-46 8 -65 11 -118 20 -338 88 -488 152 -159 67 -180 67 -350 -1 -297 -119
-542 -177 -749 -178 -233 -1 -497 64 -835 205 -73 30 -149 33 -206 7z"/>
</g>
</svg>
